<svg xmlns="http://www.w3.org/2000/svg" width="815" height="1287" viewBox="0 0 815 1287">
<g>
<path d="M 351.87 1286.54 C351.60,1286.27 345.22,1284.91 337.69,1283.52 C292.97,1275.26 249.83,1259.52 211.40,1237.45 C99.73,1173.30 20.94,1057.11 4.61,932.50 C2.49,916.31 -0.00,885.42 -0.00,875.32 C-0.00,865.18 2.49,835.29 4.56,820.50 C10.37,779.11 25.62,729.46 43.33,694.33 L 46.59 687.87 L 77.05 724.13 C93.80,744.07 108.42,761.47 109.54,762.80 L 111.59 765.22 L 107.75 776.34 C92.26,821.28 87.48,874.39 94.57,923.00 C109.17,1023.05 171.26,1112.17 261.17,1162.10 C283.02,1174.23 316.65,1186.96 341.49,1192.49 C367.53,1198.30 378.23,1199.40 408.50,1199.42 C439.85,1199.44 452.48,1198.04 479.50,1191.53 C524.61,1180.68 565.77,1160.52 603.00,1131.05 C615.88,1120.85 643.92,1092.86 654.13,1080.00 C692.95,1031.13 715.08,979.55 723.65,918.00 C726.14,900.09 726.14,855.56 723.64,837.50 C717.85,795.67 705.91,758.06 687.29,723.00 C678.33,706.13 670.67,694.66 657.62,678.58 C645.95,664.18 599.91,607.31 563.65,562.50 C554.30,550.95 544.46,538.80 541.77,535.50 C539.09,532.20 521.43,510.38 502.53,487.00 C410.81,373.57 416.70,380.27 402.12,372.65 C389.91,366.26 382.26,364.50 367.00,364.56 C354.46,364.61 352.83,364.84 344.05,367.85 C328.46,373.20 317.83,380.78 309.45,392.51 C295.35,412.27 292.41,435.33 301.09,458.00 C306.58,472.32 291.37,455.89 475.99,646.91 C521.92,694.44 562.43,736.51 566.00,740.41 C583.70,759.71 594.61,777.98 602.46,801.50 C622.89,862.68 608.15,927.09 563.55,971.50 C556.92,978.10 547.22,986.53 542.00,990.23 C525.01,1002.27 502.54,1012.15 482.00,1016.63 C469.84,1019.29 432.34,1019.32 420.00,1016.69 C391.30,1010.57 364.07,996.41 343.64,977.00 C334.11,967.94 332.55,966.07 266.49,884.50 C217.59,824.12 121.30,705.82 98.00,677.50 C78.96,654.37 72.04,645.25 63.73,632.39 C46.34,605.45 31.54,574.48 21.03,543.01 C-3.45,469.70 -6.38,389.48 12.64,313.64 C25.14,263.82 43.77,221.88 71.73,180.57 C114.52,117.35 176.66,65.02 244.75,34.85 C295.13,12.53 345.55,1.33 400.50,0.24 C448.45,-0.70 493.71,6.36 539.00,21.85 C644.87,58.08 735.10,141.11 780.39,243.99 C795.89,279.20 805.48,312.12 812.28,353.50 C814.19,365.14 814.45,371.31 814.78,412.50 C815.01,441.87 814.76,460.31 814.10,463.50 C813.53,466.25 811.88,475.67 810.43,484.44 C804.61,519.79 793.18,555.71 776.79,590.25 C773.98,596.16 771.34,601.00 770.91,601.00 C770.48,601.00 762.80,592.11 753.84,581.25 C744.88,570.39 731.02,553.62 723.03,544.00 C715.04,534.37 707.96,525.80 707.30,524.96 C706.34,523.72 706.95,520.77 710.43,509.96 C725.11,464.35 728.98,409.73 720.91,362.00 C713.12,315.82 695.53,270.98 670.52,233.49 C657.14,213.43 646.35,200.24 630.05,183.98 C576.06,130.13 507.08,98.27 431.11,92.09 C324.89,83.45 217.26,134.03 153.94,222.35 C105.54,289.85 83.64,375.14 94.06,455.50 C99.04,493.91 112.31,535.04 130.13,567.27 C139.81,584.79 152.01,601.61 179.24,635.00 C194.27,653.42 233.19,701.35 265.72,741.50 C382.36,885.43 400.43,907.35 406.44,912.20 C419.33,922.58 434.53,928.09 450.50,928.17 C461.95,928.22 471.26,926.03 482.00,920.77 C488.88,917.39 492.22,914.87 499.55,907.55 C506.91,900.19 509.37,896.91 512.74,890.00 C517.70,879.83 519.74,872.26 520.59,860.93 C521.79,844.92 516.87,826.68 507.55,812.64 C505.42,809.43 484.28,786.68 460.58,762.11 C436.89,737.53 389.15,687.96 354.50,651.96 C319.85,615.96 281.06,575.68 268.29,562.45 C255.53,549.21 242.34,535.04 238.99,530.94 C222.83,511.22 211.48,485.75 206.89,458.90 C205.07,448.21 204.85,443.94 205.31,428.00 C206.07,402.36 209.81,386.72 220.53,364.50 C242.02,319.94 284.02,287.66 334.62,276.83 C344.18,274.78 348.16,274.50 367.50,274.54 C386.56,274.57 390.90,274.87 400.00,276.85 C422.00,281.61 440.70,289.52 459.16,301.87 C475.97,313.11 485.38,322.90 517.79,362.92 C534.09,383.04 560.91,416.15 577.39,436.50 C593.87,456.85 635.51,508.07 669.92,550.32 C704.34,592.57 735.90,631.62 740.05,637.10 C751.23,651.85 759.29,665.16 770.57,687.50 C790.39,726.73 803.91,767.23 810.48,807.06 C811.88,815.55 813.47,824.94 814.01,827.92 C815.31,835.02 815.31,920.61 814.02,926.24 C813.48,928.58 811.90,937.70 810.51,946.50 C794.56,1047.22 734.40,1145.16 649.33,1208.89 C598.22,1247.17 543.86,1271.07 478.00,1284.20 C466.94,1286.40 464.33,1286.50 409.43,1286.76 C378.05,1286.91 352.14,1286.81 351.87,1286.54 Z" fill="rgba(0,26,54,1)"/>
</g>
</svg>